<svg width="56" height="62" viewBox="0 0 56 62" fill="none" xmlns="http://www.w3.org/2000/svg">
<path d="M26.5173 3.31582L25.0342 0C24.0129 11.5539 21.116 14.5763 10.2357 27.3372C9.86174 27.8007 9.51065 28.2828 9.18262 28.7858C10.9482 30.9927 13.3245 33.2397 16.169 35.3725C16.9291 35.9429 17.7214 36.5039 18.5461 37.0531C19.6132 35.3666 20.8139 33.7979 21.9868 32.3372C22.2154 32.0512 22.4417 31.7722 22.6703 31.4865C25.6001 27.8476 28.6292 24.0822 29.6791 19.4969C30.8448 14.4207 28.805 8.40335 26.5173 3.31582ZM27.9898 17.2383C27.9453 17.847 27.8753 18.4558 27.7616 19.0543C27.6457 19.6741 27.4651 20.2626 27.2569 20.825C27.0533 21.3927 26.8107 21.9308 26.5564 22.4611C26.3045 22.9939 26.0249 23.5053 25.743 24.0119C25.1701 25.0242 24.5489 25.9946 23.8928 26.936C22.5811 28.8164 21.1613 30.6047 19.5893 32.245C20.802 30.2972 22.0146 28.3661 23.1604 26.4013C24.2878 24.4301 25.4082 22.4369 26.1808 20.3331C26.3682 19.8072 26.5302 19.2771 26.6369 18.7428C26.7413 18.1892 26.8181 17.6236 26.8786 17.0521C26.9907 15.9109 27.0082 14.7432 26.9773 13.5694C26.8924 11.2199 26.598 8.84234 26.1674 6.45656C26.6455 7.58856 26.9923 8.7676 27.2882 9.95482C27.428 10.5515 27.5565 11.1494 27.6642 11.753C27.7649 12.3561 27.8495 12.9627 27.9156 13.5725C28.0411 14.7896 28.0789 16.0188 27.9898 17.2383Z" fill="#e8431a"/>
<path d="M34.4108 16.3871L31.3002 11.2383C31.9812 14.2314 32.1991 17.2607 31.5523 20.0938C30.4006 25.1041 27.2397 29.0336 24.1806 32.8323C23.952 33.1157 23.7305 33.3975 23.5019 33.6786C22.3891 35.0675 21.2415 36.5564 20.2344 38.1449C21.9367 39.1898 23.7498 40.1956 25.6574 41.1179C26.867 41.704 28.072 42.2396 29.2633 42.7237C30.2356 43.1218 31.1989 43.4831 32.1482 43.8099C33.3304 42.3498 34.5216 40.8426 35.4548 39.2511C36.1154 38.1188 36.6311 36.8989 37.0246 35.6503C39.015 29.3829 37.9792 22.2934 34.4108 16.3871ZM36.1642 30.5011C35.9357 32.6278 35.4145 34.701 34.5638 36.5978C34.1409 37.5476 33.6395 38.4531 33.0621 39.2954C32.4754 40.1322 31.8336 40.9287 31.063 41.572C31.6818 40.7784 32.2108 39.9204 32.6799 39.0291C33.1535 38.143 33.5511 37.215 33.9028 36.2692C34.2428 35.3178 34.5391 34.3485 34.757 33.3542C34.9841 32.3654 35.1513 31.3526 35.2493 30.3323C35.3589 29.3151 35.3879 28.2822 35.3638 27.2428C35.3513 26.2042 35.2603 25.1597 35.1464 24.1157C34.8954 22.0259 34.4922 19.9339 33.9205 17.8578C34.8542 19.8211 35.4695 21.9245 35.8611 24.054C35.9116 24.3208 35.9528 24.587 35.9985 24.856C36.0327 25.1241 36.0716 25.3924 36.1012 25.66C36.1651 26.1981 36.2083 26.737 36.2398 27.2772C36.2845 28.354 36.2715 29.4335 36.1642 30.5011Z" fill="#e8431a"/>
<path d="M42.5339 29.8373L40.3621 26.2433L40.3277 26.1855C40.3322 26.2074 40.3322 26.2313 40.3322 26.2529C40.4848 31.6199 39.3724 36.5063 37.1176 40.377C36.2699 41.8271 35.2516 43.1778 34.208 44.4742C37.8929 45.5747 41.3318 46.1397 44.2733 46.1617C45.1194 46.1674 45.9217 46.1292 46.6778 46.0467C46.7987 45.1355 46.8576 44.203 46.8588 43.254C46.8646 38.3198 45.2498 33.6549 42.5339 29.8373ZM44.8853 45.1929C44.804 43.7904 44.7757 42.4279 44.5906 41.0606C44.5293 40.3793 44.3962 39.702 44.3073 39.0256C44.1697 38.3504 44.0692 37.6732 43.9039 37.0053C43.6082 35.6604 43.2478 34.3271 42.8298 33.0015C42.4095 31.6755 41.9409 30.3628 41.4145 29.0405C42.2685 30.1847 42.94 31.4656 43.4986 32.7784C44.0641 34.0941 44.4914 35.4635 44.8009 36.8548C44.9705 37.547 45.062 38.252 45.1717 38.9538L45.2673 40.0106C45.2786 40.1859 45.3015 40.36 45.3035 40.537L45.3099 41.0633C45.3612 42.4707 45.1866 43.8631 44.8853 45.1929Z" fill="#e8431a"/>
<path d="M24.0863 48.3334C20.7881 46.9765 17.7677 45.1979 15.0576 42.8407C13.7037 41.6629 12.5417 40.2915 11.0589 39.2719C9.52498 38.2171 7.95897 37.2459 6.51342 36.0621C6.48377 36.0379 6.45823 36.0106 6.43105 35.9844C6.31409 36.4849 6.21257 36.9927 6.13206 37.5086C6.12732 37.5323 6.12506 37.5583 6.12032 37.582C5.94838 38.6605 5.8623 39.7675 5.8623 40.8886C5.8623 51.3513 13.3415 60.029 23.1479 61.6762C23.1479 61.6762 27.1166 62.3684 29.6111 61.726C33.7517 61.0955 37.4854 59.2182 40.4406 56.4758C40.5614 56.3643 40.6801 56.2505 40.7987 56.1367C42.0338 54.9318 43.1227 53.5718 44.0355 52.0869C37.2532 51.751 30.4239 50.9406 24.0863 48.3334Z" fill="#e8431a"/>
<path d="M24.0861 48.3334C20.7879 46.9765 17.7675 45.1979 15.0574 42.8407C13.7035 41.6629 12.5415 40.2915 11.0587 39.2719C9.52477 38.2171 7.95876 37.2459 6.51322 36.0621C6.48356 36.0379 6.45803 36.0106 6.43085 35.9844C6.31388 36.4849 6.21237 36.9927 6.13185 37.5086C6.12712 37.5323 6.12485 37.5583 6.12012 37.582C9.58882 41.5025 14.3107 45.4229 19.902 48.7936C27.1347 53.1549 34.4535 55.7718 40.4401 56.4758C40.561 56.3643 40.6796 56.2505 40.7982 56.1367C42.0333 54.9318 43.1222 53.5718 44.0351 52.0869C37.2529 51.751 30.4237 50.9406 24.0861 48.3334Z" fill="#e8431a"/>
<path d="M52.1035 36.8522C53.333 39.3698 53.6032 41.7193 52.6918 43.6317C49.9247 49.4389 37.3033 49.0066 24.5028 42.6661C11.7023 36.3257 3.56806 26.4771 6.3354 20.6701C7.2468 18.7577 9.22506 17.522 11.9263 16.9514C10.7758 16.9468 9.68508 17.0112 8.66517 17.145C5.71271 17.5323 3.58495 20.2697 3.8895 23.2887C4.08018 25.1784 4.67529 27.5249 6.09757 30.1817C6.95028 31.7746 8.25148 33.1073 9.46454 34.4622C11.9032 37.1701 14.6607 39.5968 17.6204 41.7395C20.5862 43.8746 23.7384 45.7567 27.0329 47.3537C23.6622 45.9318 20.4048 44.2084 17.3226 42.1879C14.2427 40.1657 11.3384 37.84 8.72138 35.1872C7.4138 33.8572 6.18158 32.4554 5.06818 30.926C3.95807 29.3995 2.98181 27.7118 2.38815 25.8309C2.30702 25.5989 2.25327 25.3568 2.18491 25.1198C2.12334 24.8805 2.07598 24.6367 2.02182 24.3949C1.92813 23.8999 1.87068 23.3985 1.84803 22.8955C1.80211 21.8894 1.89662 20.8754 2.14002 19.8877C2.15299 19.8347 2.16802 19.7823 2.18203 19.7296C1.52947 20.318 1.00829 20.9993 0.638048 21.7765C-2.62906 28.6326 6.9721 40.2592 22.083 47.744C37.196 55.2299 52.0948 55.7388 55.3619 48.8827C56.9125 45.6288 55.5648 41.3028 52.1035 36.8522Z" fill="black"/>
</svg>
